<?xml version="1.0" standalone="no"?>
<!DOCTYPE svg PUBLIC "-//W3C//DTD SVG 20010904//EN"
 "http://www.w3.org/TR/2001/REC-SVG-20010904/DTD/svg10.dtd">
<svg version="1.0" xmlns="http://www.w3.org/2000/svg"
 width="241.000000pt" height="241.000000pt" viewBox="0 0 241.000000 241.000000"
 preserveAspectRatio="xMidYMid meet">
<metadata>
Created by potrace 1.11, written by Peter Selinger 2001-2013
</metadata>
<g transform="translate(0.000000,241.000000) scale(0.100000,-0.100000)"
fill="#000000" stroke="none">
<path d="M1079 2406 c-2 -2 -22 -7 -44 -10 -86 -13 -113 -19 -190 -43 -44 -14
-116 -43 -160 -65 -44 -22 -90 -46 -102 -52 -13 -6 -23 -14 -23 -18 0 -5 -7
-8 -15 -8 -8 0 -15 -4 -15 -8 0 -4 -13 -15 -28 -24 -16 -10 -46 -33 -68 -53
-21 -20 -55 -51 -74 -69 -157 -144 -303 -433 -337 -666 -15 -105 -7 -382 13
-440 3 -8 8 -26 10 -40 22 -121 158 -390 242 -479 10 -10 35 -37 57 -61 169
-183 409 -309 677 -356 99 -18 382 -7 444 16 13 5 24 8 24 5 0 -5 165 51 182
62 7 4 18 8 24 9 20 3 155 84 214 127 155 115 268 248 357 422 94 184 132 352
128 570 -2 83 -6 161 -9 175 -4 14 -11 43 -16 65 -18 83 -30 122 -54 184 -29
73 -97 200 -135 251 -14 19 -29 39 -33 45 -82 113 -240 248 -378 322 -59 32
-199 90 -240 99 -126 29 -174 36 -301 39 -81 2 -148 2 -150 1z"/>
</g>
</svg>
